<svg width="105" height="22" viewBox="0 0 105 22" fill="none" xmlns="http://www.w3.org/2000/svg">
<path d="M3.09766 11.6592L11.4893 14.8711V17.8799L0.787109 13.1572V11.1641L3.09766 11.6592ZM11.4893 9.03125L3.09766 12.2939L0.787109 12.7383V10.7451L11.4893 6.03516V9.03125ZM23.8789 1.51562L16.6806 21.5869H14.2812L21.4921 1.51562H23.8789ZM33.0946 20.2539C32.079 20.2539 31.1607 20.0889 30.3398 19.7588C29.5273 19.4202 28.8333 18.9505 28.2577 18.3496C27.6907 17.7487 27.2548 17.042 26.9501 16.2295C26.6454 15.417 26.4931 14.541 26.4931 13.6016V13.0938C26.4931 12.0189 26.6497 11.0456 26.9628 10.1738C27.276 9.30208 27.7118 8.55729 28.2704 7.93945C28.829 7.31315 29.4892 6.83496 30.2509 6.50488C31.0126 6.1748 31.8378 6.00977 32.7265 6.00977C33.7083 6.00977 34.5673 6.1748 35.3036 6.50488C36.04 6.83496 36.6493 7.30046 37.1318 7.90137C37.6226 8.49382 37.9866 9.20052 38.2236 10.0215C38.469 10.8424 38.5917 11.748 38.5917 12.7383V14.0459H27.9784V11.8496H35.5702V11.6084C35.5533 11.0583 35.4433 10.542 35.2402 10.0596C35.0455 9.57715 34.745 9.18783 34.3388 8.8916C33.9325 8.59538 33.3909 8.44727 32.7138 8.44727C32.206 8.44727 31.7532 8.55729 31.3554 8.77734C30.9661 8.98893 30.6402 9.29785 30.3779 9.7041C30.1155 10.1104 29.9124 10.6012 29.7685 11.1768C29.6331 11.7438 29.5654 12.3828 29.5654 13.0938V13.6016C29.5654 14.2025 29.6458 14.7611 29.8066 15.2773C29.9758 15.7852 30.2213 16.2295 30.5429 16.6104C30.8645 16.9912 31.2538 17.2917 31.7109 17.5117C32.1679 17.7233 32.6884 17.8291 33.2724 17.8291C34.0087 17.8291 34.6646 17.681 35.2402 17.3848C35.8157 17.0885 36.315 16.6696 36.7382 16.1279L38.3505 17.6895C38.0543 18.1211 37.6692 18.5358 37.1952 18.9336C36.7213 19.3229 36.1415 19.6403 35.456 19.8857C34.7789 20.1312 33.9918 20.2539 33.0946 20.2539ZM49.7626 17.2451V10.6943C49.7626 10.2035 49.6737 9.78027 49.496 9.4248C49.3182 9.06934 49.0474 8.79427 48.6835 8.59961C48.328 8.40495 47.8794 8.30762 47.3378 8.30762C46.8384 8.30762 46.4068 8.39225 46.0429 8.56152C45.6789 8.73079 45.3954 8.95931 45.1923 9.24707C44.9891 9.53483 44.8876 9.86068 44.8876 10.2246H41.8407C41.8407 9.68294 41.9719 9.1582 42.2343 8.65039C42.4966 8.14258 42.8775 7.68978 43.3768 7.29199C43.8762 6.89421 44.4729 6.58105 45.1669 6.35254C45.8609 6.12402 46.6395 6.00977 47.5028 6.00977C48.5354 6.00977 49.4494 6.18327 50.245 6.53027C51.049 6.87728 51.6796 7.40202 52.1366 8.10449C52.6021 8.7985 52.8348 9.67025 52.8348 10.7197V16.8262C52.8348 17.4525 52.8772 18.0153 52.9618 18.5146C53.0549 19.0055 53.1861 19.4329 53.3554 19.7969V20H50.2196C50.0757 19.6699 49.9615 19.251 49.8768 18.7432C49.8007 18.2269 49.7626 17.7275 49.7626 17.2451ZM50.2069 11.6465L50.2323 13.5381H48.036C47.469 13.5381 46.9696 13.5931 46.538 13.7031C46.1063 13.8047 45.7466 13.957 45.4589 14.1602C45.1711 14.3633 44.9553 14.6087 44.8114 14.8965C44.6675 15.1842 44.5956 15.5101 44.5956 15.874C44.5956 16.238 44.6802 16.5723 44.8495 16.877C45.0188 17.1732 45.2642 17.4059 45.5858 17.5752C45.9159 17.7445 46.3137 17.8291 46.7792 17.8291C47.4055 17.8291 47.9514 17.7021 48.4169 17.4482C48.8908 17.1859 49.2632 16.8685 49.5341 16.4961C49.8049 16.1152 49.9488 15.7555 49.9657 15.417L50.9559 16.7754C50.8544 17.1224 50.6809 17.4948 50.4354 17.8926C50.19 18.2904 49.8684 18.6712 49.4706 19.0352C49.0813 19.3906 48.6115 19.6826 48.0614 19.9111C47.5197 20.1396 46.8934 20.2539 46.1825 20.2539C45.2854 20.2539 44.4856 20.0762 43.7831 19.7207C43.0806 19.3568 42.5305 18.8701 42.1327 18.2607C41.7349 17.6429 41.536 16.9447 41.536 16.166C41.536 15.4382 41.6714 14.7949 41.9423 14.2363C42.2216 13.6693 42.6278 13.1953 43.161 12.8145C43.7027 12.4336 44.3628 12.1458 45.1415 11.9512C45.9201 11.748 46.8088 11.6465 47.8075 11.6465H50.2069ZM60.1463 8.87891V20H57.0868V6.26367H60.0067L60.1463 8.87891ZM64.3485 6.1748L64.3231 9.01855C64.1369 8.9847 63.9338 8.95931 63.7137 8.94238C63.5021 8.92546 63.2905 8.91699 63.0789 8.91699C62.5542 8.91699 62.0929 8.99316 61.6952 9.14551C61.2974 9.28939 60.9631 9.50098 60.6922 9.78027C60.4299 10.0511 60.2267 10.3812 60.0829 10.7705C59.939 11.1598 59.8543 11.5957 59.8289 12.0781L59.1307 12.1289C59.1307 11.2656 59.2153 10.4658 59.3846 9.72949C59.5539 8.99316 59.8078 8.3457 60.1463 7.78711C60.4933 7.22852 60.925 6.79264 61.4412 6.47949C61.966 6.16634 62.5711 6.00977 63.2567 6.00977C63.4429 6.00977 63.6418 6.02669 63.8534 6.06055C64.0734 6.0944 64.2385 6.13249 64.3485 6.1748ZM74.2371 6.26367V8.49805H66.493V6.26367H74.2371ZM68.7273 2.89941H71.7869V16.2041C71.7869 16.6273 71.8462 16.9531 71.9646 17.1816C72.0916 17.4017 72.2651 17.5498 72.4852 17.626C72.7052 17.7021 72.9633 17.7402 73.2596 17.7402C73.4712 17.7402 73.6743 17.7275 73.8689 17.7021C74.0636 17.6768 74.2202 17.6514 74.3387 17.626L74.3514 19.9619C74.0975 20.0381 73.8012 20.1058 73.4627 20.165C73.1326 20.2243 72.7518 20.2539 72.3201 20.2539C71.6176 20.2539 70.9956 20.1312 70.4539 19.8857C69.9122 19.6318 69.4891 19.2214 69.1844 18.6543C68.8797 18.0872 68.7273 17.334 68.7273 16.3945V2.89941ZM80.6599 0.5V20H77.613V0.5H80.6599ZM80.1267 12.624L79.1365 12.6113C79.1449 11.6634 79.2761 10.7874 79.53 9.9834C79.7924 9.17936 80.1563 8.48112 80.6218 7.88867C81.0958 7.28776 81.6628 6.8265 82.323 6.50488C82.9832 6.1748 83.7153 6.00977 84.5193 6.00977C85.1964 6.00977 85.8058 6.10286 86.3474 6.28906C86.8975 6.47526 87.3715 6.77572 87.7693 7.19043C88.1671 7.59668 88.4675 8.12988 88.6707 8.79004C88.8823 9.44173 88.988 10.2373 88.988 11.1768V20H85.9158V11.1514C85.9158 10.4912 85.8184 9.96647 85.6238 9.57715C85.4376 9.18783 85.1625 8.90853 84.7986 8.73926C84.4347 8.56152 83.9903 8.47266 83.4656 8.47266C82.9155 8.47266 82.4288 8.58268 82.0056 8.80273C81.5909 9.02279 81.2439 9.32324 80.9646 9.7041C80.6853 10.085 80.4737 10.5251 80.3298 11.0244C80.1944 11.5238 80.1267 12.057 80.1267 12.624ZM101.695 12.167L93.1511 8.98047V6.02246L104.12 10.7324V12.7383L101.695 12.167ZM93.1511 14.9092L101.72 11.6592L104.12 11.1514V13.1445L93.1511 17.8672V14.9092Z" fill="white"/>
</svg>
