<svg width="41" height="40" viewBox="0 0 41 40" fill="none" xmlns="http://www.w3.org/2000/svg">
<g id="dashicons:facebook">
<path id="Vector" d="M6.28 4H34.74C35.72 4 36.5 4.78 36.5 5.76V34.24C36.5 35.2 35.72 36 34.74 36H26.58V23.6H30.74L31.36 18.78H26.58V15.7C26.58 14.3 26.98 13.34 28.98 13.34H31.54V9.02C31.1 8.96 29.58 8.84 27.82 8.84C24.12 8.84 21.6 11.08 21.6 15.22V18.78H17.42V23.6H21.6V36H6.28C5.81136 36 5.36161 35.8152 5.02837 35.4857C4.69512 35.1562 4.50527 34.7086 4.5 34.24V5.76C4.5 4.78 5.3 4 6.28 4Z" fill="white"/>
</g>
</svg>
