<?xml version="1.0" encoding="UTF-8"?>
<svg xmlns="http://www.w3.org/2000/svg" xmlns:xlink="http://www.w3.org/1999/xlink" width="41pt" height="40pt" viewBox="0 0 41 40" version="1.1">
<g id="surface1">
<path style=" stroke:none;fill-rule:evenodd;fill:rgb(100%,100%,100%);fill-opacity:1;" d="M 20.4375 0 C 9.136719 0 0 9.167969 0 20.507812 C 0 29.570312 5.855469 37.246094 13.976562 39.960938 C 14.992188 40.164062 15.363281 39.519531 15.363281 38.976562 C 15.363281 38.5 15.328125 36.871094 15.328125 35.175781 C 9.644531 36.398438 8.460938 32.730469 8.460938 32.730469 C 7.546875 30.351562 6.191406 29.742188 6.191406 29.742188 C 4.332031 28.484375 6.328125 28.484375 6.328125 28.484375 C 8.390625 28.621094 9.476562 30.589844 9.476562 30.589844 C 11.300781 33.714844 14.246094 32.832031 15.429688 32.289062 C 15.601562 30.964844 16.140625 30.046875 16.714844 29.539062 C 12.183594 29.0625 7.410156 27.296875 7.410156 19.421875 C 7.410156 17.179688 8.222656 15.347656 9.507812 13.921875 C 9.304688 13.410156 8.59375 11.304688 9.710938 8.488281 C 9.710938 8.488281 11.4375 7.945312 15.328125 10.59375 C 16.996094 10.144531 18.714844 9.914062 20.4375 9.914062 C 22.164062 9.914062 23.925781 10.152344 25.546875 10.59375 C 29.441406 7.945312 31.164062 8.488281 31.164062 8.488281 C 32.28125 11.304688 31.570312 13.410156 31.367188 13.921875 C 32.6875 15.347656 33.46875 17.179688 33.46875 19.421875 C 33.46875 27.296875 28.695312 29.027344 24.128906 29.539062 C 24.871094 30.183594 25.515625 31.40625 25.515625 33.339844 C 25.515625 36.089844 25.480469 38.296875 25.480469 38.976562 C 25.480469 39.519531 25.851562 40.164062 26.867188 39.960938 C 34.988281 37.246094 40.84375 29.570312 40.84375 20.507812 C 40.878906 9.167969 31.707031 0 20.4375 0 Z M 20.4375 0 "/>
</g>
</svg>
