<svg width="137" height="97" viewBox="0 0 137 97" fill="none" xmlns="http://www.w3.org/2000/svg">
<ellipse cx="47" cy="48.5" rx="47" ry="46.5" fill="#AAC6FD" fill-opacity="0.63"/>
<path fill-rule="evenodd" clip-rule="evenodd" d="M59.3064 53.8625C55.1242 11.031 94.4854 -5.19544 132.545 1.42913C134.173 1.71193 135.371 3.00334 135.607 4.546C139.067 25.6177 136.642 48.9117 121.939 64.1744C109.026 77.5789 90.809 79.8134 71.9482 74.9123C70.1929 82.2384 69.9332 89.0123 69.7224 93.497C69.4908 98.3945 62.0186 98.0449 62.2502 93.1475C63.6142 64.5992 74.6725 44.0592 97.796 26.477C90.2629 27.9638 71.3594 41.1098 62.1417 58.834C60.529 58.2429 59.5783 56.6529 59.3064 53.8625Z" fill="#5DC597" fill-opacity="0.85"/>
</svg>
