<svg width="40" height="40" viewBox="0 0 40 40" fill="none" xmlns="http://www.w3.org/2000/svg">
<g id="ri:instagram-fill">
<path id="Vector" d="M21.7132 3.33506C22.9295 3.33039 24.1457 3.34261 25.3616 3.37173L25.6849 3.38339C26.0582 3.39673 26.4266 3.41339 26.8716 3.43339C28.6449 3.51673 29.8549 3.79673 30.9166 4.20839C32.0166 4.63173 32.9432 5.20506 33.8699 6.13173C34.7172 6.9644 35.3729 7.97164 35.7916 9.08339C36.2032 10.1451 36.4832 11.3567 36.5666 13.1301C36.5866 13.5734 36.6032 13.9434 36.6166 14.3167L36.6266 14.6401C36.6562 15.8554 36.669 17.0711 36.6649 18.2867L36.6666 19.5301V21.7134C36.6707 22.9296 36.6579 24.1459 36.6282 25.3617L36.6182 25.6851C36.6049 26.0584 36.5882 26.4267 36.5682 26.8717C36.4849 28.6451 36.2016 29.8551 35.7916 30.9167C35.3743 32.0297 34.7184 33.0377 33.8699 33.8701C33.0365 34.7173 32.0287 35.373 30.9166 35.7917C29.8549 36.2034 28.6449 36.4834 26.8716 36.5667C26.4266 36.5867 26.0582 36.6034 25.6849 36.6167L25.3616 36.6267C24.1457 36.6564 22.9295 36.6691 21.7132 36.6651L20.4699 36.6667H18.2882C17.072 36.6708 15.8558 36.6581 14.6399 36.6284L14.3166 36.6184C13.9209 36.6041 13.5254 36.5874 13.1299 36.5684C11.3566 36.4851 10.1466 36.2017 9.08324 35.7917C7.97104 35.374 6.96363 34.7181 6.13157 33.8701C5.28331 33.0372 4.62694 32.0293 4.20824 30.9167C3.79657 29.8551 3.51657 28.6451 3.43324 26.8717C3.41468 26.4763 3.39801 26.0807 3.38324 25.6851L3.3749 25.3617C3.34418 24.1459 3.33029 22.9296 3.33324 21.7134V18.2867C3.32859 17.0711 3.34081 15.8554 3.3699 14.6401L3.38157 14.3167C3.3949 13.9434 3.41157 13.5734 3.43157 13.1301C3.5149 11.3551 3.7949 10.1467 4.20657 9.08339C4.62552 7.97109 5.28318 6.96413 6.13324 6.13339C6.96473 5.28465 7.97151 4.62768 9.08324 4.20839C10.1466 3.79673 11.3549 3.51673 13.1299 3.43339L14.3166 3.38339L14.6399 3.37506C15.8552 3.34435 17.0709 3.33046 18.2866 3.33339L21.7132 3.33506ZM19.9999 11.6684C18.8957 11.6528 17.7995 11.8568 16.7749 12.2685C15.7502 12.6802 14.8176 13.2915 14.0313 14.0668C13.245 14.8421 12.6206 15.766 12.1944 16.7847C11.7682 17.8034 11.5487 18.8966 11.5487 20.0009C11.5487 21.1052 11.7682 22.1984 12.1944 23.2171C12.6206 24.2358 13.245 25.1597 14.0313 25.935C14.8176 26.7103 15.7502 27.3215 16.7749 27.7333C17.7995 28.145 18.8957 28.349 19.9999 28.3334C22.21 28.3334 24.3297 27.4554 25.8925 25.8926C27.4553 24.3298 28.3332 22.2102 28.3332 20.0001C28.3332 17.7899 27.4553 15.6703 25.8925 14.1075C24.3297 12.5447 22.21 11.6684 19.9999 11.6684ZM19.9999 15.0017C20.6641 14.9895 21.324 15.1097 21.9412 15.3554C22.5584 15.6011 23.1205 15.9673 23.5945 16.4326C24.0686 16.898 24.4452 17.4531 24.7023 18.0656C24.9594 18.6781 25.0919 19.3358 25.092 20C25.0921 20.6643 24.9599 21.322 24.703 21.9346C24.446 22.5472 24.0696 23.1025 23.5957 23.568C23.1218 24.0335 22.5599 24.3998 21.9428 24.6457C21.3257 24.8916 20.6658 25.0121 20.0016 25.0001C18.6755 25.0001 17.4037 24.4733 16.466 23.5356C15.5284 22.5979 15.0016 21.3261 15.0016 20.0001C15.0016 18.674 15.5284 17.4022 16.466 16.4645C17.4037 15.5268 18.6755 15.0001 20.0016 15.0001L19.9999 15.0017ZM28.7499 9.16839C28.2122 9.18991 27.7037 9.41864 27.3309 9.80668C26.9581 10.1947 26.7499 10.7119 26.7499 11.2501C26.7499 11.7882 26.9581 12.3054 27.3309 12.6934C27.7037 13.0815 28.2122 13.3102 28.7499 13.3317C29.3024 13.3317 29.8323 13.1122 30.223 12.7215C30.6137 12.3308 30.8332 11.8009 30.8332 11.2484C30.8332 10.6959 30.6137 10.166 30.223 9.77525C29.8323 9.38455 29.3024 9.16506 28.7499 9.16506V9.16839Z" fill="white"/>
</g>
</svg>
