<svg width="40" height="40" viewBox="0 0 40 40" fill="none" xmlns="http://www.w3.org/2000/svg">
<g id="uil:linkedin">
<path id="Vector" d="M34.1167 3.33336H5.88335C5.56598 3.32896 5.25085 3.38711 4.95596 3.5045C4.66107 3.6219 4.39219 3.79623 4.16468 4.01755C3.93717 4.23887 3.75549 4.50284 3.63 4.79438C3.50452 5.08592 3.4377 5.39933 3.43335 5.7167V34.2834C3.4377 34.6007 3.50452 34.9141 3.63 35.2057C3.75549 35.4972 3.93717 35.7612 4.16468 35.9825C4.39219 36.2038 4.66107 36.3782 4.95596 36.4956C5.25085 36.6129 5.56598 36.6711 5.88335 36.6667H34.1167C34.4341 36.6711 34.7492 36.6129 35.0441 36.4956C35.339 36.3782 35.6078 36.2038 35.8354 35.9825C36.0629 35.7612 36.2445 35.4972 36.37 35.2057C36.4955 34.9141 36.5623 34.6007 36.5667 34.2834V5.7167C36.5623 5.39933 36.4955 5.08592 36.37 4.79438C36.2445 4.50284 36.0629 4.23887 35.8354 4.01755C35.6078 3.79623 35.339 3.6219 35.0441 3.5045C34.7492 3.38711 34.4341 3.32896 34.1167 3.33336ZM13.4833 31.2334H8.48335V16.2334H13.4833V31.2334ZM10.9833 14.1334C10.2938 14.1334 9.63247 13.8594 9.14487 13.3718C8.65728 12.8842 8.38335 12.2229 8.38335 11.5334C8.38335 10.8438 8.65728 10.1825 9.14487 9.69489C9.63247 9.20729 10.2938 8.93336 10.9833 8.93336C11.3495 8.89184 11.7203 8.92812 12.0715 9.03984C12.4226 9.15155 12.7462 9.33618 13.0211 9.58163C13.296 9.82709 13.5159 10.1278 13.6665 10.4642C13.817 10.8005 13.8949 11.1649 13.8949 11.5334C13.8949 11.9019 13.817 12.2662 13.6665 12.6026C13.5159 12.9389 13.296 13.2396 13.0211 13.4851C12.7462 13.7305 12.4226 13.9152 12.0715 14.0269C11.7203 14.1386 11.3495 14.1749 10.9833 14.1334ZM31.5167 31.2334H26.5167V23.1834C26.5167 21.1667 25.8 19.85 23.9833 19.85C23.4211 19.8541 22.8737 20.0305 22.4147 20.3553C21.9558 20.6801 21.6075 21.1378 21.4167 21.6667C21.2863 22.0584 21.2297 22.471 21.25 22.8834V31.2167H16.25V16.2167H21.25V18.3334C21.7042 17.5452 22.3649 16.8959 23.1608 16.4554C23.9566 16.0148 24.8576 15.7998 25.7667 15.8334C29.1 15.8334 31.5167 17.9834 31.5167 22.6V31.2334Z" fill="white"/>
</g>
</svg>
